<?xml version="1.0" encoding="UTF-8"?>
<svg id="Capa_2" data-name="Capa 2" xmlns="http://www.w3.org/2000/svg" viewBox="0 0 403.63 403.74">
  <defs>
    <style>
      .cls-1 {
        fill: #fff;
      }

      .cls-2 {
        fill: #caddff;
      }

      .cls-3 {
        fill: #99b9ff;
      }

      .cls-4 {
        fill: #5479f7;
      }
    </style>
  </defs>
  <g id="Capa_1-2" data-name="Capa 1">
    <g>
      <path class="cls-2" d="m97.73,101.86c42.22-42.46,30.13-69.07,59.02-88.73,44.45-30.24,127.42-4.22,176.36,37.39,59.95,50.96,90.88,144.01,55.65,228.19-37.52,89.65-136.25,136.19-224.35,122.16C85.75,388.34,8.42,326.38.67,252.08c-.84-8.05-4.55-51.59,21.46-89.13,21.49-31.03,42.14-27.43,75.61-61.09"/>
      <path class="cls-3" d="m332.49,6.31l-58.02,53.66c-2.14,1.97-2.27,5.31-.29,7.44,1.98,2.14,5.31,2.26,7.45.29l58.02-53.65c2.14-1.98,2.27-5.31.29-7.44-1.97-2.14-5.31-2.27-7.45-.29"/>
      <path class="cls-3" d="m282.69,29.5l-32.05,29.64c-1.98,1.83-2.1,4.93-.27,6.91,1.83,1.98,4.93,2.1,6.92.27l32.05-29.64c1.98-1.83,2.1-4.93.27-6.91s-4.93-2.1-6.92-.27"/>
      <path class="cls-3" d="m300.61,19.6c1.83,1.98,1.71,5.07-.27,6.91-1.98,1.83-5.08,1.71-6.91-.27-1.84-1.98-1.72-5.07.27-6.91,1.98-1.84,5.08-1.72,6.92.27"/>
      <path class="cls-3" d="m191.38,287.43l-81.73,75.58c-3.01,2.78-3.19,7.48-.41,10.48s7.48,3.19,10.49.41l81.73-75.58c3.01-2.79,3.19-7.48.41-10.48-2.78-3.01-7.48-3.19-10.49-.41"/>
      <path class="cls-3" d="m121.23,320.1l-45.14,41.74c-2.79,2.58-2.96,6.94-.38,9.73,2.58,2.79,6.95,2.96,9.74.38l45.14-41.74c2.8-2.58,2.96-6.94.38-9.73-2.59-2.79-6.95-2.96-9.74-.38"/>
      <path class="cls-1" d="m109.92,168.88l8.69-.05s9.25-26.28,34.88-27.77l1.3-74.13c-53.87.18-101.42,30.51-123.07,75.33l78.2,26.61"/>
      <path class="cls-1" d="m213.85,201.74c-4.42,24.36-26.63,43.51-53.83,44.35-6.7.21-14.51-3.8-14.51-3.8,0,0-7.16.39-8.39-.08l-42.46,65.7c19.74,8.9,42.04,13.27,65.36,11.93,67.83-3.9,121.16-54.92,127.08-116.34l-73.25-1.76"/>
      <path d="m95.74,307.59c19.86,8.81,42.07,12.79,64.24,11.52,65.79-3.78,119.95-53.11,126.32-114.9l-71.85-1.72c-4.83,24.9-27.6,43.51-54.41,44.34-6.33.2-13.44-3.18-14.68-3.79-1.39.07-5.98.29-7.9,0l-41.73,64.56Zm56.14,13.21c-19.95,0-39.68-4.18-57.52-12.22-.19-.09-.34-.26-.4-.46-.06-.2-.03-.42.08-.6l42.47-65.7c.19-.3.56-.41.88-.29.67.27,4.64.22,8.08.04.13-.01.26.02.37.08.08.04,7.72,3.9,14.15,3.72,26.34-.82,48.68-19.22,53.14-43.76.06-.35.35-.61.73-.6l73.26,1.75c.2,0,.39.1.53.25s.2.35.18.55c-2.91,30.16-17.31,58.65-40.56,80.21-23.55,21.85-54.53,34.92-87.21,36.79-2.73.16-5.46.24-8.19.24"/>
      <path class="cls-1" d="m81.37,300.99l8.49.29,34.36-66.18c-12.82-9.48-21.06-24.24-21.06-40.98,0-4.04.49-7.99,1.4-11.78l-69.98-26.4-6.86.56c-4.21,12.35-8.15,25.03-8.15,38.65,0,45.07,24.75,83.88,61.79,105.85"/>
      <path class="cls-4" d="m168.34,141.39c24.78,3.69,43.82,22.87,46.08,46.58l119.79,3.47v-.07s0-.04,0-.08c0-.09,18.05-2.9,18.05-2.91,0-.82-163.64-172.7-163.64-172.7l-18.15,2.98s-1.43,81.82-2.15,122.73"/>
      <path d="m297.32,191.1h-.03l-82.89-2.4c-.37-.01-.67-.29-.71-.66-2.23-23.39-20.93-42.28-45.47-45.92-.36-.06-.63-.37-.62-.73l2.15-122.73c0-.35.27-.65.61-.71l18.15-2.98c.24-.04.48.04.65.21,1.18,1.24,118.36,124.33,153.57,161.81.28.3.26.76-.03,1.04-.29.27-.76.26-1.03-.03C307.27,141.37,194.68,23.08,188.37,16.46l-17.17,2.82-2.13,121.48c24.67,3.94,43.46,22.93,46.01,46.49l82.24,2.38c.41.02.72.35.71.75-.01.4-.34.71-.73.71"/>
      <path class="cls-3" d="m118.49,168.88c8.68-15.17,24.82-25.88,43.57-27.82l1.3-74.13c-53.88.18-101.42,30.51-123.07,75.33l78.2,26.61"/>
      <path class="cls-3" d="m222.42,201.74c-4.42,24.36-26.63,43.51-53.83,44.35-8.11.26-15.86-1.15-22.9-3.89l-42.46,65.7c19.73,8.9,42.04,13.27,65.36,11.93,67.83-3.9,121.16-54.92,127.08-116.34l-73.25-1.76"/>
      <path d="m104.31,307.59c19.87,8.81,42.06,12.79,64.24,11.52,65.79-3.78,119.95-53.11,126.32-114.9l-71.84-1.72c-4.83,24.9-27.6,43.51-54.41,44.34-7.83.24-15.44-1.01-22.63-3.72l-41.68,64.49Zm56.15,13.21c-19.95,0-39.68-4.18-57.52-12.22-.19-.09-.34-.26-.4-.46-.06-.2-.03-.42.09-.6l42.46-65.7c.19-.3.56-.41.88-.29,7.16,2.79,14.76,4.08,22.61,3.84,26.34-.82,48.68-19.22,53.13-43.76.06-.35.36-.6.72-.6h.02l73.26,1.76c.2,0,.39.09.53.24s.2.35.18.55c-2.91,30.16-17.31,58.65-40.56,80.21-23.55,21.85-54.52,34.92-87.21,36.79-2.73.16-5.46.24-8.18.24"/>
      <path d="m160.32,310.16c-14.26,0-28.16-2.25-41.34-6.7-.38-.13-.59-.54-.46-.92.13-.39.54-.59.93-.46,13.03,4.39,26.78,6.62,40.88,6.62,2.53,0,5.09-.07,7.62-.22.42-.03.75.29.77.69.03.4-.29.74-.69.77-2.56.15-5.15.22-7.7.22"/>
      <path d="m194.8,305.58c-.32,0-.62-.21-.7-.54-.11-.39.12-.79.51-.9,44.75-12.19,79.32-47.7,88.06-90.46.08-.4.47-.65.86-.57.4.08.65.47.57.86-4.38,21.41-15.11,41.34-31.04,57.64-15.81,16.16-35.89,27.9-58.06,33.94-.06.02-.13.03-.19.03"/>
      <path class="cls-3" d="m89.94,300.99l42.85-65.89c-12.82-9.48-21.06-24.24-21.06-40.98,0-4.04.48-7.99,1.4-11.78l-78.5-26.3c-4.21,12.35-6.49,25.49-6.49,39.1,0,45.07,24.75,83.88,61.79,105.85"/>
      <path class="cls-3" d="m89.94,300.99l42.85-65.89c-12.82-9.48-21.06-24.24-21.06-40.98,0-4.04.48-7.99,1.4-11.78l-78.5-26.3c-4.21,12.35-6.49,25.49-6.49,39.1,0,45.07,24.75,83.88,61.79,105.85"/>
      <path class="cls-3" d="m89.94,300.99l42.85-65.89c-12.82-9.48-21.06-24.24-21.06-40.98,0-4.04.48-7.99,1.4-11.78l-78.5-26.3c-4.21,12.35-6.49,25.49-6.49,39.1,0,45.07,24.75,83.88,61.79,105.85"/>
      <path d="m89.94,301.72c-.14,0-.28-.04-.4-.12-.34-.22-.43-.67-.21-1.01l42.48-65.32c-13.23-10.04-20.8-25-20.8-41.16,0-3.8.43-7.6,1.27-11.3l-34.65-11.61c-.39-.13-.59-.54-.46-.92.13-.39.54-.59.93-.46l35.28,11.82c.36.12.57.49.48.86-.92,3.8-1.38,7.71-1.38,11.61,0,15.91,7.57,30.63,20.76,40.4.31.23.39.66.18.98l-42.86,65.89c-.14.21-.37.33-.61.33"/>
      <path d="m40.3,143c-.11,0-.21-.02-.32-.07-.36-.18-.52-.61-.34-.98,5.55-11.49,12.84-22.14,21.66-31.65.28-.3.74-.31,1.03-.04.3.28.31.73.04,1.03-8.73,9.41-15.93,19.94-21.42,31.3-.13.27-.39.41-.66.41"/>
      <path d="m118.49,169.61c-.08,0-.16-.02-.23-.04l-39.09-13.31c-.38-.13-.58-.54-.45-.92s.54-.59.92-.46l38.53,13.11c8.95-15.24,25.02-25.51,43.18-27.58l1.28-72.74c-7.04.06-14.11.65-21.02,1.74-.41.06-.78-.21-.84-.6-.06-.4.21-.78.61-.84,7.22-1.15,14.63-1.74,21.98-1.76h0c.19,0,.38.08.52.21s.21.33.21.53l-1.3,74.14c0,.37-.29.68-.66.71-18.18,1.88-34.26,12.14-43.01,27.45-.14.23-.38.36-.64.36"/>
      <path class="cls-3" d="m186.4,138.26c24.78,3.68,43.83,22.86,46.09,46.58l119.79,3.47c0-.05,0-.1,0-.15,0-87.81-70.02-162.96-163.73-172.63l-2.15,122.73"/>
      <path d="m293.4,187.34h-.02l-60.91-1.77c-.37-.01-.67-.3-.71-.66-2.23-23.39-20.93-42.28-45.47-45.92-.36-.06-.63-.37-.62-.73l2.15-122.73c0-.2.09-.4.24-.53s.35-.2.56-.18c39.47,4.07,75.74,19.69,104.89,45.15,14.05,12.27,25.97,26.46,35.42,42.18,9.58,15.94,16.42,33.09,20.31,50.98.08.4-.17.79-.56.87-.39.09-.78-.16-.86-.56-16.01-73.61-79.68-128.62-158.56-137.08l-2.12,121.3c24.67,3.94,43.46,22.93,46.01,46.49l60.27,1.74c.41.02.72.35.71.76-.01.39-.33.71-.73.71"/>
      <path class="cls-1" d="m351.08,402.56h-23.94v-161.49l20.24-19.69,3.7,181.18"/>
      <path d="m351.08,403.29h-23.94c-.41,0-.73-.32-.73-.73v-161.49c0-.2.08-.39.22-.52l20.24-19.69c.29-.28.75-.28,1.04.01.28.29.27.76-.02,1.03l-20.02,19.48v160.45h23.21c.41,0,.73.33.73.73s-.32.73-.73.73"/>
      <path class="cls-4" d="m402.41,402.56h-54.82c-.11,0-.2-.09-.2-.2v-180.77c0-.11.1-.21.21-.2l54.82,2.07c.11,0,.2.09.2.2v178.69c0,.11-.09.2-.2.2"/>
      <path d="m348.11,401.83h53.77v-177.66l-53.77-2.03v179.69Zm54.3,1.46h-54.82c-.52,0-.94-.42-.94-.93v-180.77c0-.26.1-.49.29-.67s.43-.27.68-.26l54.82,2.07c.5.02.9.43.9.93v178.69c0,.52-.42.93-.93.93"/>
      <path class="cls-1" d="m280.13,402.56h-22.19v-99.99l20.24-12.19,1.95,112.19"/>
      <path d="m280.13,403.29h-22.19c-.41,0-.73-.32-.73-.73v-99.99c0-.26.13-.49.35-.63l20.24-12.19c.34-.21.79-.1,1,.25.21.34.1.79-.25,1l-19.89,11.98v98.85h21.46c.4,0,.73.33.73.73s-.33.73-.73.73"/>
      <path class="cls-4" d="m333.41,402.56h-55.23v-111.95c0-.13.11-.23.23-.23l54.99,1.84v110.34"/>
      <path d="m278.91,401.83h53.77v-108.91l-53.77-1.8v110.7Zm54.49,1.46h-55.22c-.41,0-.73-.32-.73-.73v-111.95c0-.26.1-.51.29-.69.18-.18.45-.28.7-.27l54.99,1.84c.4.02.71.33.71.73v110.34c0,.41-.33.73-.73.73"/>
      <path class="cls-1" d="m213.43,402.56h-22.9v-51.19l20.24-6.24,2.66,57.43"/>
      <path d="m213.43,403.29h-22.9c-.41,0-.73-.32-.73-.73v-51.19c0-.32.21-.6.52-.7l20.24-6.24c.39-.12.79.09.91.48s-.1.8-.48.92l-19.72,6.08v49.92h22.17c.41,0,.73.33.73.73s-.32.73-.73.73"/>
      <path class="cls-4" d="m265.81,402.56h-54.84c-.11,0-.19-.08-.19-.19v-57.04c0-.1.08-.19.19-.19l54.84.9c.11,0,.19.09.19.19v56.15c0,.11-.09.19-.19.19"/>
      <path d="m211.5,401.83h53.77v-55.08l-53.77-.88v55.96Zm54.31,1.46h-54.84c-.51,0-.92-.41-.92-.92v-57.04c0-.24.1-.48.27-.66.18-.18.43-.26.67-.27l54.84.9c.5.01.91.42.91.92v56.15c0,.51-.41.92-.92.92"/>
      <path class="cls-2" d="m292.86,371.35c-.4,0-.73-.33-.73-.73v-66.84c0-.4.33-.73.73-.73s.73.33.73.73v66.84c0,.4-.33.73-.73.73"/>
      <path class="cls-2" d="m321.81,379.16c-.41,0-.73-.33-.73-.73v-66.84c0-.4.33-.73.73-.73s.73.33.73.73v66.84c0,.4-.33.73-.73.73"/>
      <path class="cls-2" d="m375,302.94c-.4,0-.72-.33-.72-.73v-66.84c0-.4.32-.73.72-.73s.73.33.73.73v66.84c0,.4-.32.73-.73.73"/>
      <path class="cls-2" d="m249.31,389.72c-.41,0-.73-.32-.73-.73v-34.01c0-.4.32-.73.73-.73s.73.33.73.73v34.01c0,.41-.33.73-.73.73"/>
      <path class="cls-2" d="m307.33,352.98c-.4,0-.72-.33-.72-.73v-13.68c0-.4.32-.73.72-.73s.73.33.73.73v13.68c0,.4-.33.73-.73.73"/>
      <path class="cls-2" d="m360.53,262.29c-.4,0-.72-.33-.72-.73v-13.68c0-.41.32-.73.72-.73s.73.33.73.73v13.68c0,.4-.33.73-.73.73"/>
      <path class="cls-2" d="m389.48,289.26c-.4,0-.73-.32-.73-.73v-13.68c0-.41.33-.73.73-.73s.73.33.73.73v13.68c0,.41-.33.73-.73.73"/>
      <path class="cls-2" d="m231.97,377.6c-.41,0-.73-.33-.73-.73v-10.04c0-.4.33-.73.73-.73s.73.33.73.73v10.04c0,.4-.33.73-.73.73"/>
      <path class="cls-2" d="m292.86,371.35c-.4,0-.73-.33-.73-.73v-66.84c0-.4.33-.73.73-.73s.73.33.73.73v66.84c0,.4-.33.73-.73.73"/>
      <path class="cls-2" d="m321.81,379.16c-.41,0-.73-.33-.73-.73v-66.84c0-.4.33-.73.73-.73s.73.33.73.73v66.84c0,.4-.33.73-.73.73"/>
      <path class="cls-2" d="m307.33,352.98c-.4,0-.72-.33-.72-.73v-13.68c0-.4.32-.73.72-.73s.73.33.73.73v13.68c0,.4-.33.73-.73.73"/>
      <path class="cls-2" d="m375,302.94c-.4,0-.72-.33-.72-.73v-66.84c0-.4.32-.73.72-.73s.73.33.73.73v66.84c0,.4-.32.73-.73.73"/>
      <path class="cls-2" d="m360.53,262.29c-.4,0-.72-.33-.72-.73v-13.68c0-.41.32-.73.72-.73s.73.33.73.73v13.68c0,.4-.33.73-.73.73"/>
      <path class="cls-2" d="m389.48,289.26c-.4,0-.73-.32-.73-.73v-13.68c0-.41.33-.73.73-.73s.73.33.73.73v13.68c0,.41-.33.73-.73.73"/>
      <path class="cls-2" d="m249.31,389.72c-.41,0-.73-.32-.73-.73v-34.01c0-.4.32-.73.73-.73s.73.33.73.73v34.01c0,.41-.33.73-.73.73"/>
      <path class="cls-2" d="m231.97,377.6c-.41,0-.73-.33-.73-.73v-10.04c0-.4.33-.73.73-.73s.73.33.73.73v10.04c0,.4-.33.73-.73.73"/>
      <path class="cls-1" d="m279.32,84.61c2.8-15.33,17.52-25.56,32.88-22.85,15.36,2.7,25.54,17.33,22.74,32.66s-17.52,25.56-32.88,22.85-25.54-17.33-22.74-32.66"/>
      <path d="m307.26,62.05c-13.11,0-24.8,9.39-27.23,22.69-1.32,7.22.26,14.51,4.44,20.51,4.18,6.01,10.47,10.02,17.71,11.3,14.94,2.64,29.31-7.35,32.03-22.27,1.31-7.22-.26-14.51-4.44-20.52-4.19-6.01-10.48-10.02-17.71-11.29-1.61-.29-3.22-.42-4.8-.42Zm-.28,56.38c-1.67,0-3.35-.14-5.06-.44-7.62-1.34-14.24-5.57-18.65-11.9s-6.07-14.01-4.68-21.61c2.86-15.7,17.99-26.21,33.72-23.44,7.63,1.34,14.24,5.57,18.66,11.9,4.41,6.33,6.07,14,4.68,21.6-2.56,14.01-14.88,23.89-28.67,23.89"/>
      <path class="cls-4" d="m324.33,78.65l-9.82,3.6c-.51.19-.64.84-.24,1.21l1.16,1.08c.29.28.31.73.04,1.03l-5.28,5.67c-.28.3-.73.31-1.03.04l-6.75-6.28c-.3-.28-.76-.26-1.03.04l-11.76,12.57c-.28.29-.26.75.04,1.03l2.46,2.29c.3.28.76.26,1.03-.04l8.47-9.04c.28-.29.73-.31,1.03-.04l6.74,6.27c.29.28.76.26,1.03-.04l8.55-9.19c.28-.29.73-.31,1.03-.04l1.25,1.17c.4.37,1.05.19,1.2-.34l2.82-10.13c.16-.57-.4-1.08-.95-.88"/>
      <path d="m344.08,98.28c-.2,0-.39-.08-.54-.23-.27-.29-.26-.76.04-1.03l38.19-35.32c.3-.28.76-.26,1.04.04.27.3.26.76-.04,1.03l-38.2,35.32c-.14.13-.32.19-.49.19"/>
      <path d="m380.25,104.47c-.19,0-.37-.07-.52-.21l-1.42-1.41c-.29-.28-.29-.74,0-1.03.28-.29.74-.29,1.03,0l1.42,1.41c.29.28.29.74,0,1.03-.15.15-.33.22-.52.22"/>
      <path d="m387.06,111.21c-.19,0-.38-.07-.52-.21l-1.42-1.41c-.29-.28-.29-.74-.01-1.03.29-.29.75-.29,1.04,0l1.42,1.41c.29.29.29.75,0,1.03-.14.15-.33.22-.52.22"/>
      <path d="m378.83,111.21c-.19,0-.38-.07-.52-.22-.29-.29-.29-.75,0-1.03l1.42-1.41c.29-.29.75-.28,1.04,0,.28.29.28.74,0,1.03l-1.42,1.41c-.15.14-.33.21-.52.21"/>
      <path d="m385.63,104.47c-.19,0-.38-.07-.52-.22-.28-.28-.28-.74.01-1.03l1.42-1.41c.29-.29.75-.28,1.03,0,.29.29.28.75,0,1.03l-1.42,1.41c-.14.15-.33.21-.52.21"/>
      <path d="m97.32,21.5c-.19,0-.37-.07-.52-.21l-1.42-1.41c-.29-.28-.29-.74,0-1.03.29-.29.75-.29,1.04,0l1.42,1.41c.29.29.29.75,0,1.03-.15.15-.33.22-.52.22"/>
      <path d="m104.13,28.25c-.19,0-.37-.07-.52-.21l-1.42-1.41c-.29-.28-.29-.74,0-1.03.29-.29.75-.29,1.04,0l1.42,1.41c.29.29.29.75,0,1.04-.14.15-.33.21-.52.21"/>
      <path d="m95.89,28.25c-.19,0-.38-.07-.52-.21-.28-.29-.28-.75,0-1.04l1.42-1.41c.29-.28.75-.28,1.04,0,.28.29.28.75,0,1.03l-1.43,1.41c-.14.14-.32.21-.51.21"/>
      <path d="m102.71,21.5c-.19,0-.38-.07-.52-.22-.28-.29-.28-.74,0-1.03l1.42-1.41c.29-.28.75-.28,1.03,0,.29.29.29.75,0,1.03l-1.43,1.41c-.14.15-.32.21-.51.21"/>
      <path d="m83.23,31.94c-1.7,0-3.08,1.36-3.08,3.05s1.38,3.04,3.08,3.04,3.08-1.36,3.08-3.04-1.38-3.05-3.08-3.05Zm0,7.55c-2.5,0-4.54-2.03-4.54-4.51s2.04-4.51,4.54-4.51,4.54,2.02,4.54,4.51-2.04,4.51-4.54,4.51"/>
      <path d="m203.46,327.51c-.19,0-.37-.07-.51-.21l-1.43-1.41c-.29-.29-.29-.74,0-1.03.28-.29.74-.29,1.03,0l1.42,1.41c.29.29.29.74,0,1.03-.15.15-.33.22-.52.22"/>
      <path d="m210.27,334.26c-.19,0-.37-.07-.52-.21l-1.42-1.41c-.29-.29-.29-.74,0-1.03.28-.29.74-.29,1.03,0l1.42,1.41c.29.28.29.74,0,1.03-.15.15-.33.22-.52.22"/>
      <path d="m202.04,334.26c-.19,0-.38-.07-.52-.22-.29-.29-.29-.75,0-1.03l1.43-1.41c.28-.29.74-.29,1.03,0,.28.29.28.74,0,1.03l-1.42,1.41c-.14.14-.33.21-.52.21"/>
      <path d="m208.85,327.51c-.19,0-.38-.07-.52-.22-.29-.29-.29-.74,0-1.03l1.42-1.41c.29-.29.75-.28,1.04,0s.28.74,0,1.03l-1.42,1.41c-.14.14-.33.21-.52.21"/>
      <path class="cls-1" d="m26.61,369.51l-2.41,16.92-6.17.03-.29-16.64,8.88-.3"/>
      <path d="m18.48,370.52l.27,15.2,4.82-.02,2.2-15.43-7.28.24Zm-.45,16.67c-.4,0-.72-.32-.73-.71l-.29-16.64c0-.4.31-.73.7-.74l8.88-.3c.21-.02.42.08.57.24s.21.38.18.59l-2.42,16.92c-.05.36-.35.63-.72.63l-6.17.02"/>
      <path class="cls-1" d="m24.41,402.61c-2.42.26-6.03.36-10.85-.06-1.72-.15-2.94-1.74-2.66-3.45.74-4.59,2.83-12.7,6.13-16.41l1.63,2.31.96-2.39c.16-.26,4.24-.43,4.33.06l.25,2.33,2.32-2.59-.13,8.53c-.02.94.07,1.89.27,2.81l.61,2.95c.37,1.78-.09,3.66-1.33,4.98-.48.52-1.03.88-1.53.93"/>
      <path d="m16.98,383.9c-2.89,3.92-4.71,11.33-5.36,15.31-.1.62.06,1.27.45,1.76.39.49.94.79,1.56.85,5.13.45,8.65.28,10.7.06.29-.04.69-.29,1.08-.71,1.05-1.11,1.47-2.73,1.15-4.33l-.61-2.95c-.2-.97-.3-1.97-.28-2.97l.1-6.58-1.02,1.14c-.19.21-.49.3-.77.21s-.47-.33-.51-.62l-.2-1.93c-.71-.1-2.4-.07-3.1.05l-.84,2.08c-.1.24-.33.42-.59.45-.26.03-.53-.09-.68-.31l-1.07-1.52Zm7.42,18.71h0,0Zm-4.69.96c-1.74,0-3.81-.08-6.22-.29-1.03-.09-1.94-.59-2.58-1.41-.64-.82-.91-1.87-.74-2.89.2-1.21,2.05-11.97,6.3-16.78.15-.17.37-.24.59-.24.22.02.43.13.56.31l.85,1.21.46-1.15s.04-.07.05-.1c.55-.92,4.6-.51,4.64-.5.22.04.93.17,1.04.81,0,.02,0,.03,0,.05l.08.7,1.22-1.38c.2-.23.53-.3.81-.19.29.11.47.39.47.69l-.13,8.53c-.01.89.07,1.78.25,2.65l.61,2.95c.43,2.06-.14,4.16-1.51,5.63-.65.69-1.33,1.09-1.98,1.16-1.15.12-2.73.23-4.77.23"/>
      <path d="m19.99,400.54c-1.7,0-3.82-.13-6.21-.55-.4-.07-.67-.45-.59-.84.07-.4.45-.67.84-.59,5.93,1.04,10.13.21,10.17.2.39-.08.78.18.86.57.08.39-.18.78-.57.86-.11.02-1.79.35-4.5.35"/>
      <path d="m21.96,394.05h-5.59c-.41,0-.73-.33-.73-.73s.33-.73.73-.73h5.59c.41,0,.73.33.73.73s-.33.73-.73.73"/>
      <path class="cls-1" d="m70.89,371.02l2.17,19.72,8.3,1.74-.51-23.13-9.97,1.67"/>
      <path d="m73.73,390.14l6.89,1.44-.47-21.36-8.45,1.42,2.04,18.51Zm7.64,3.07c-.05,0-.1,0-.15-.02l-8.3-1.74c-.31-.06-.54-.32-.57-.63l-2.17-19.72c-.04-.39.22-.73.6-.8l9.97-1.67c.21-.03.42.02.58.16.17.14.26.34.27.55l.51,23.13c0,.22-.09.43-.27.57-.13.11-.3.17-.46.17"/>
      <path class="cls-1" d="m69.56,400.15c-.18-3.46-.19-9.82,1.92-12.89l6.64,2.36v-1.42c0-.46.33-.83.74-.86l3.7-.21c1.38-.08,2.76.2,4.02.82,3.72,1.83,15.05,6.52,16.62,11.8.46,1.56-.76,3.11-2.38,3.16-3.72.11-12.69.22-28.77-.32-1.34-.05-2.43-1.11-2.49-2.44"/>
      <path d="m71.79,388.14c-1.24,2.27-1.79,6.57-1.51,11.96.05.97.82,1.72,1.79,1.76,15.92.54,24.83.44,28.72.32.57-.02,1.1-.3,1.44-.76.31-.43.41-.96.26-1.46-1.29-4.33-10.28-8.54-14.59-10.57-.64-.3-1.2-.56-1.65-.78-1.15-.57-2.42-.82-3.66-.75l-3.7.21s-.05.05-.05.13v1.42c0,.23-.12.46-.31.6-.19.14-.44.17-.67.09l-6.08-2.17Zm21.6,15.59c-4.94,0-11.93-.09-21.36-.42-1.73-.06-3.11-1.41-3.2-3.14-.19-3.59-.18-10.1,2.05-13.34.19-.28.54-.39.85-.28l5.66,2.02v-.38c0-.84.63-1.54,1.43-1.58l3.7-.21c1.5-.09,3.01.22,4.39.9.44.22.99.47,1.63.77,4.85,2.28,13.9,6.52,15.37,11.47.28.93.1,1.93-.47,2.73-.6.83-1.56,1.34-2.58,1.37-1.6.04-4.04.09-7.45.09"/>
      <path d="m90.82,400.46c-4.71,0-11.09-.21-18.05-1.02-.4-.05-.69-.41-.64-.81.05-.4.41-.68.81-.64,14.12,1.64,25.79.79,25.91.78.39-.04.75.27.78.67.03.4-.27.75-.67.78-.06,0-3.19.23-8.14.23"/>
      <path d="m88.76,394.81c-.15,0-.3-.05-.43-.14l-6.39-4.59c-.33-.23-.4-.69-.17-1.02s.69-.4,1.02-.17l6.39,4.59c.33.23.4.69.17,1.02-.14.2-.36.3-.59.3"/>
      <path class="cls-4" d="m73.48,243.08s11.9,81.56,9.36,136l-3.71.37c-1.99.2-4.01.25-6.01.15l-3.52-.18s-14.19-82.7-21.28-96.43c0,0-19.27,73.54-20.01,93.46,0,0-8.56.86-11.98-.36-1.83-19.23-2.36-39.13-2.45-51.63-.26-35.76,3.16-52,5.03-59.7,1.72-7.08,3.57-12.83,4.92-16.72l4.51-12.84,45.14,7.88"/>
      <path d="m70.23,378.72l2.94.15c1.96.1,3.94.05,5.9-.15l3.08-.31c2.29-51.47-8.3-127.65-9.31-134.7l-44.01-7.68-4.3,12.26c-1.89,5.44-3.54,11.04-4.9,16.65-2.27,9.33-5.26,25.66-5.01,59.53.08,10.38.49,30.74,2.41,51.08,2.9.8,8.69.41,10.6.25,1.1-20.67,19.81-92.25,20.01-92.98.07-.29.32-.51.63-.54.3-.03.59.13.73.39,6.82,13.23,19.87,88.09,21.24,96.06Zm4.91,1.66c-.68,0-1.37-.02-2.05-.05l-3.52-.18c-.34-.02-.63-.27-.68-.61-.14-.79-13.19-76.54-20.37-94.36-3.08,11.93-18.81,73.52-19.47,91.3-.01.36-.29.66-.66.7-.35.04-8.77.86-12.3-.41-.27-.09-.45-.33-.48-.61-1.96-20.55-2.38-41.2-2.46-51.69-.25-34.04,2.76-50.48,5.05-59.89,1.38-5.65,3.04-11.3,4.94-16.78l4.51-12.84c.12-.33.46-.54.81-.47l45.14,7.88c.31.05.55.3.6.61.12.82,11.88,82.26,9.37,136.14-.02.36-.3.66-.66.69l-3.71.37c-1.34.14-2.71.2-4.07.2"/>
      <path d="m47.67,286.11c-.06,0-.13,0-.19-.03-.39-.1-.62-.51-.51-.9l1.98-7.2c.6-2.21,2.38-3.88,4.63-4.34l1.85-.39c.39-.08.78.17.86.57.08.4-.17.78-.57.86l-1.85.38c-1.71.35-3.06,1.61-3.52,3.3l-1.98,7.2c-.09.32-.39.54-.7.54"/>
      <path d="m21.51,272.71c-.35,0-.66-.26-.72-.61-.07-.4.2-.78.6-.84,10.19-1.7,12.23-9.64,12.25-9.72.1-.39.49-.64.89-.54.39.09.63.48.54.88-.02.09-2.3,8.96-13.43,10.81-.04,0-.08.01-.12.01"/>
      <path d="m74.02,267.35c-.09,0-.19-.02-.29-.06-6.57-2.85-6.41-9.1-6.41-9.17.02-.4.36-.72.76-.7.4.02.72.35.7.76-.01.22-.1,5.33,5.53,7.77.37.16.54.59.38.96-.12.28-.39.44-.67.44"/>
      <path d="m72.52,175.19c-7.87-.89-24.67-2.47-36.22-1.42-3.49.32-8.52,2.45-11.18,4.73-7.81,6.74-22.55,21.58-25.02,39.39-.36,2.6,1.34,5.04,3.91,5.6l13.62,3.02s-5.43,21.39-4.99,25.08,11.69,9.97,25.76,4.82c10.97-4.02,26.5-7.22,36.36-3.75.09.03,1.04,7.6,1.14,7.62,3.17.46,6.36-.77,6.28-5.22l-1.5-23.09,18.05-2.39,1.61-.54c4.88-1.62,7.4-7,5.52-11.78-4.24-10.79-10.64-28.24-22.49-37.89-2.54-2.06-7.6-3.82-10.85-4.19"/>
      <path class="cls-1" d="m64.32,246.26h28.21c1.22,0,2.29-.83,2.58-2.02l9.76-39.32c.42-1.68-.85-3.31-2.59-3.31h-28.2c-1.23,0-2.3.83-2.59,2.02l-9.76,39.32c-.42,1.68.85,3.3,2.59,3.3"/>
      <path d="m74.08,202.34c-.89,0-1.67.6-1.88,1.47l-9.76,39.32c-.15.58-.02,1.18.35,1.66.37.47.93.74,1.53.74h28.21c.89,0,1.66-.6,1.88-1.47l9.76-39.32c.15-.58.02-1.18-.35-1.66s-.92-.74-1.53-.74h-28.2Zm18.45,44.65h-28.21c-1.05,0-2.03-.48-2.68-1.31-.65-.83-.88-1.89-.62-2.91l9.76-39.32c.38-1.52,1.73-2.58,3.3-2.58h28.2c1.05,0,2.03.47,2.68,1.3s.88,1.89.62,2.91l-9.76,39.32c-.38,1.52-1.73,2.58-3.3,2.58"/>
      <path class="cls-1" d="m100.29,221.71l-.95,3.97-3.41-1.14c-1.88-.63-3.68-1.46-5.38-2.48l-1.95-1.19c-1.46-.89-3.36-.19-3.93,1.42-1.2,3.42-.97,9.15,11.32,12.76,6.78,1.98,8.72-6.69,7.84-11.52-.22-1.23-.83-2.02-1.45-2.52-.74-.6-1.85-.22-2.09.7"/>
      <path d="m87.21,221.22c-.22,0-.44.04-.66.11-.56.2-.99.64-1.2,1.2-.65,1.84-.57,3.59.24,5.17,1.42,2.76,4.97,4.99,10.59,6.64,1.79.53,3.3.25,4.48-.81,2.28-2.05,3.03-6.63,2.44-9.87-.16-.88-.56-1.57-1.19-2.08-.22-.18-.46-.13-.55-.1s-.31.13-.38.41l-.94,3.96c-.05.2-.18.37-.36.47-.18.1-.39.12-.58.06l-3.41-1.14c-1.93-.64-3.79-1.49-5.52-2.55l-1.96-1.18c-.31-.19-.66-.28-1.01-.28Zm10.66,14.84c-.67,0-1.36-.1-2.09-.32-6.01-1.76-9.88-4.24-11.48-7.37-.98-1.93-1.1-4.11-.32-6.32.34-.98,1.1-1.74,2.08-2.09.97-.35,2.03-.24,2.91.29l1.96,1.19c1.65.99,3.41,1.81,5.23,2.42l2.65.88.77-3.19h0c.18-.68.67-1.22,1.33-1.44.66-.22,1.38-.09,1.92.34.92.73,1.49,1.73,1.71,2.96.66,3.59-.14,8.73-2.9,11.22-1.07.96-2.35,1.44-3.78,1.44"/>
      <path class="cls-1" d="m35.06,198.94c-1.41,1.45-3.02,2.69-4.78,3.68-5.92,3.37-20.07,11.53-23.58,14.53-4.48,3.83-6.63,5.26-3.03,15.1,5.88,16.05,33.26-25.15,33.26-25.15,0,0,8.05,1.45,9.85-5.59,0,0,4.19.79,5.94.03,1.34-.58,1.28-2.85-.51-3.1l-11.57-2.16c-1.59-.29-3.22.24-4.35,1.4l-1.23,1.26"/>
      <path d="m35.58,199.46c-1.46,1.49-3.12,2.78-4.93,3.81-5.9,3.36-20.01,11.49-23.47,14.45l-.4.33c-4.18,3.56-5.74,4.89-2.42,13.96.72,1.98,1.79,3.03,3.24,3.2.15.02.3.03.46.03,7.61,0,22.91-20.48,28.27-28.54.16-.24.45-.37.74-.32.3.05,7.4,1.24,9.01-5.05.1-.37.47-.61.84-.54,1.11.21,4.26.63,5.52.08.4-.17.53-.62.48-.96-.03-.24-.18-.66-.8-.75l-11.6-2.16c-1.35-.24-2.73.2-3.7,1.19l-1.23,1.26Zm-27.56,37.24c-.2,0-.4-.01-.59-.03-2.03-.24-3.52-1.64-4.44-4.16-3.53-9.65-1.79-11.63,2.84-15.57l.4-.33c3.56-3.05,17.76-11.23,23.7-14.61,1.7-.96,3.25-2.16,4.61-3.55l1.23-1.27c1.3-1.33,3.17-1.93,5.01-1.6l11.57,2.16c1.06.15,1.87.93,2.01,1.99.15,1.06-.41,2.09-1.34,2.49-1.52.66-4.4.33-5.71.13-1.94,5.9-8.21,5.72-10.02,5.54-2.4,3.57-19.77,28.81-29.27,28.81"/>
      <path class="cls-1" d="m61.86,160.08l.87,12.04c.19,1.57,1.32,2.86,2.84,3.26l4.23,1.1-2.74,2.09c-6.09,4.64-14.52,4.64-20.61.02l-4.34-3.3,5.26-1.17c1.51-.34,2.67-1.55,2.95-3.07l2.32-15.93,9.23,4.96"/>
      <path d="m43.8,175.65l3.09,2.34c5.82,4.41,13.93,4.4,19.73-.02l1.55-1.18-2.78-.72c-1.83-.48-3.16-1.99-3.39-3.88l-.84-11.67-7.96-4.28-2.17,14.9c-.33,1.84-1.7,3.28-3.51,3.68l-3.72.83Zm12.94,7.1c-3.79,0-7.57-1.19-10.73-3.59l-4.34-3.29c-.23-.17-.33-.46-.27-.74.06-.28.28-.49.55-.56l5.26-1.17c1.22-.27,2.16-1.24,2.39-2.48l2.32-15.91c.03-.23.18-.44.4-.55.21-.1.46-.1.67.01l9.23,4.96c.22.12.36.34.38.59l.86,12.04c.16,1.24,1.06,2.28,2.31,2.6l4.23,1.1c.27.07.48.29.54.56.05.28-.05.56-.28.72l-2.74,2.09c-3.17,2.41-6.96,3.61-10.77,3.61"/>
      <path d="m75.56,143.33c-2.9-1.53-.57,3.23-10.09-5.01-3.79-3.28-3.93,2.84-4.92,1.99-3.64-3.13-3.52-3.03-5.81-3.43-1.52-.26-3.56,1.83-4.16,3.82-.8,2.62.94,4.19.35,10.22-.42,4.24-1.75,6.32-.53,7.53,1.24,1.22,3.25-.27,4.7.96,1.88,1.59-.27,5.13,1.12,7.63.88,1.58,3.74,3.44,9.79,3.3.97-.03,1.81-.74,1.96-1.71.21-1.24.46-2.81.57-4.33.54-7.24-1.02-9.64.52-10.88,2.35-1.9,6.35,1.64,8.05-.03,1.76-1.73,2.42-7.97-1.54-10.07"/>
      <path class="cls-1" d="m61.14,147.38l.12,1.98c.06.93.05,1.86-.02,2.8-.14,1.74-.34,4.75-.34,6.44.02,2.48,7.7,2.97,7.7,2.97l.97-1.08.9.04c.17,0,.35-.02.51-.1.39-.2.58-.62.52-1.02-.36-2.19-1-7.04-.3-10.8,0,0-4.27-3.47-10.06-1.22"/>
      <path d="m61.91,147.88l.08,1.44c.06.96.05,1.93-.02,2.9-.13,1.66-.34,4.69-.33,6.38,0,1.03,3.44,1.97,6.66,2.22l.74-.82c.15-.16.35-.25.57-.24l.9.04c.09,0,.13-.02.14-.02.11-.06.14-.17.13-.25-.4-2.4-.96-6.89-.38-10.6-1.03-.68-4.27-2.46-8.5-1.04Zm6.7,14.42h-.05c-1.96-.13-8.36-.76-8.39-3.69-.01-1.74.21-4.82.34-6.51.07-.89.08-1.8.02-2.69l-.12-1.98c-.02-.32.17-.61.46-.72,6.11-2.38,10.6,1.17,10.79,1.33.2.17.3.44.26.7-.69,3.71-.02,8.61.3,10.55.12.72-.24,1.44-.9,1.78-.26.14-.56.2-.88.19l-.56-.03-.74.83c-.14.15-.34.24-.54.24"/>
      <path class="cls-1" d="m59.8,153.48s-.28-4.76-2.42-4.16c-2.13.6-1.69,5.83,2.42,4.16"/>
      <path class="cls-1" d="m307.81,125.83l9.94,11.15s.41,22.51,10.82,27.63c10.42,5.13,26.59-5.97,26.59-5.97l1.95,13.93s-16.81,14.8-32.62,6.08c-15.81-8.72-11.28-33.77-11.28-33.77,0,.02-4.11-1.04-4.2-5.46-.08-3.76,1.16-5.5,1.16-5.5,0,0-4.81-5.34-2.36-8.09"/>
      <path d="m313.34,144.16c.08.02.16.04.23.08.27.16.41.46.35.77-.04.24-4.26,24.63,10.91,32.99,14.05,7.74,29.19-3.87,31.49-5.74l-1.73-12.39c-3.72,2.34-17.05,9.97-26.35,5.39-10.19-5.01-11.14-25.27-11.22-27.99l-9.09-10.2c-.7,2.4,2.74,6.32,2.78,6.36.23.26.25.63.05.91,0,.01-1.09,1.64-1.03,5.06.08,3.7,3.38,4.69,3.61,4.76Zm21.8,37.93c-3.58,0-7.33-.79-11.01-2.82-14.86-8.19-12.36-29.83-11.74-33.9-.18-.08-.39-.17-.62-.3-1.28-.67-3.42-2.3-3.49-5.65-.06-2.84.6-4.62,1.01-5.43-1.13-1.38-4.46-5.91-2.02-8.66.14-.16.33-.24.55-.24s.41.09.55.24l9.94,11.15c.12.13.18.3.19.47,0,.22.51,22.11,10.41,26.98,9.92,4.88,25.7-5.81,25.86-5.92.21-.15.47-.17.71-.07.23.1.39.32.43.57l1.94,13.93c.04.24-.05.48-.24.65-.13.11-10.39,8.99-22.44,8.99"/>
      <path d="m314.33,143.63c-.16,0-.31-.05-.44-.15-.1-.07-2.42-1.86-1.89-4.31.19-.89-.08-1.74-.35-2.3-.44-.94-.48-1.99-.13-2.98l.17-.48c.08-.22.28-.4.51-.46.23-.06.48,0,.66.16l3.57,3.18c.3.27.33.73.06,1.03-.27.3-.73.32-1.03.06l-2.7-2.41c-.05.43.03.88.21,1.28.52,1.09.67,2.21.45,3.23-.33,1.53,1.32,2.82,1.34,2.83.32.24.39.7.14,1.02-.15.19-.36.29-.58.29"/>
      <path d="m364.88,222.88s9.71,3.61,13.52.57c3.81-3.04-5.9-8.18-8.19-7.8s-5.33,7.23-5.33,7.23"/>
      <path class="cls-1" d="m316.06,300.48l9.15,15.98,4.95-6.85-8-15.6-6.1,6.47"/>
      <path d="m316.96,300.58l8.31,14.53,4.03-5.57-7.32-14.29-5.02,5.32Zm8.24,16.61h-.04c-.24-.02-.47-.15-.59-.37l-9.14-15.98c-.16-.28-.12-.63.1-.86l6.09-6.47c.17-.17.4-.26.64-.22.23.04.44.18.55.39l8,15.6c.13.24.1.54-.06.76l-4.95,6.85c-.14.19-.35.3-.59.3"/>
      <path d="m322.04,314.02c2.41,4.96,8.51,17.01,14.39,22.78,1.43,1.41,3.86.76,4.38-1.19,1.84-6.95,3.06-21.44-3.79-32.86,0,0-3.26-.38-9.35.76l1.35,5.71-.75-.53c-1.13-.81-2.66-.74-3.71.16l-1.76,1.51c-1.06.91-1.37,2.41-.76,3.66"/>
      <path class="cls-1" d="m337.39,335.46c-.08,0-.18-.02-.26-.05-.38-.15-.57-.57-.43-.94,5.16-13.63-1.82-29.73-1.89-29.9-.16-.37,0-.8.37-.96.38-.16.8,0,.97.38.3.68,7.29,16.8,1.92,31-.11.29-.39.47-.68.47"/>
      <path class="cls-1" d="m325.59,321.67c-.24,0-.47-.12-.61-.33-.22-.34-.13-.79.21-1.01l4.57-2.96c.34-.21.79-.12,1.01.22.22.34.13.79-.21,1.01l-4.57,2.96c-.13.08-.26.12-.4.12"/>
      <path class="cls-1" d="m327.87,325.73c-.22,0-.44-.1-.58-.29-.24-.32-.18-.78.14-1.02l4.19-3.21c.32-.25.78-.19,1.02.13.24.32.19.78-.14,1.03l-4.19,3.21c-.13.1-.29.15-.44.15"/>
      <path class="cls-1" d="m287.11,300.85c0,.39-8.38,18.65-8.38,18.65l9.52.77,6.48-15.6-7.62-3.81"/>
      <path d="m279.83,318.86l7.95.64,6.02-14.49-6.31-3.15c-.64,1.56-2.47,5.69-7.66,17Zm8.42,2.14s-.04,0-.06,0l-9.52-.76c-.24-.02-.45-.15-.57-.36-.12-.2-.14-.45-.04-.67,3.2-6.97,8.03-17.59,8.33-18.49.04-.19.16-.36.33-.47.22-.13.48-.14.71-.03l7.61,3.81c.34.17.5.58.35.93l-6.47,15.6c-.11.28-.39.45-.68.45"/>
      <path d="m287.49,315.69s-1.91-4.57-6.85-2.28c0,0-9.09,13.12-12.47,23.95-.95,3.06,2.19,5.82,5.12,4.51,6.85-3.09,17.59-9.58,23.73-21.61,0,0-1.91-4.95-4.95-7.23l-4.57,2.66"/>
      <path class="cls-1" d="m270.94,339.29c-.4,0-.64-.03-.69-.04-.4-.06-.68-.43-.61-.83.06-.4.42-.67.82-.61.13.01,10.11,1.1,23.69-17.6.23-.33.69-.4,1.02-.16.33.23.4.69.17,1.02-12.3,16.93-21.78,18.22-24.39,18.22"/>
      <path class="cls-1" d="m278.73,328.99c-.13,0-.25-.03-.36-.1l-4.57-2.66c-.35-.2-.47-.65-.27-1,.2-.34.65-.46,1-.26l4.57,2.66c.35.2.46.65.26,1-.14.23-.38.36-.63.36"/>
      <path class="cls-1" d="m281.02,325.56c-.12,0-.23-.03-.34-.09l-4.95-2.67c-.35-.19-.49-.63-.3-.99.19-.35.64-.48.99-.3l4.95,2.67c.35.19.48.63.29.99-.13.24-.38.39-.64.39"/>
      <path class="cls-1" d="m335.87,208.74s-24.83,4.43-42.72,23.18c-4.52,4.73-6.11,11.54-4.18,17.79,3.97,12.81,12.63,36.21,27.09,53.81l11.05-9.52s-2.67-22.08-9.91-35.78,35.05-43.39,35.05-43.39l-16.38-6.09"/>
      <path d="m335.81,209.5c-2.33.46-25.43,5.44-42.13,22.92-4.33,4.54-5.86,11.08-4.01,17.07,3.82,12.32,12.31,35.46,26.48,52.98l10.18-8.77c-.4-2.99-3.2-22.7-9.78-35.14-6.86-12.98,27.29-38.57,34.15-43.53l-14.91-5.54Zm-19.74,94.75s-.04,0-.06,0c-.2-.01-.38-.11-.51-.26-14.6-17.78-23.32-41.51-27.22-54.06-2.02-6.49-.35-13.58,4.34-18.51,17.85-18.7,42.87-23.34,43.12-23.39.13-.02.26-.01.39.04l16.38,6.09c.26.09.44.32.47.59.03.27-.08.54-.31.69-.42.29-41.67,29.47-34.82,42.45,7.21,13.66,9.95,35.81,9.98,36.03.03.24-.06.48-.25.64l-11.05,9.52c-.13.11-.3.18-.48.18"/>
      <path class="cls-1" d="m284.07,304.28l12.95,3.81s23.61-49.86,30.47-57.09c6.85-7.23,20.19-19.03,34.28-23.22s14.09-14.84,14.09-14.84l-23.99-6.85s-33.53,14.46-44.57,30.83c-11.05,16.37-23.23,67.37-23.23,67.37"/>
      <path d="m284.94,303.77l11.69,3.44c2.76-5.81,23.79-49.82,30.33-56.72,4.07-4.29,18.58-18.66,34.6-23.42,11.62-3.45,13.29-11.46,13.53-13.61l-23.17-6.61c-3.02,1.33-33.7,15.18-44.02,30.46-10.16,15.06-21.47,60.38-22.96,66.46Zm12.08,5.04c-.07,0-.14-.01-.21-.03l-12.95-3.8c-.37-.11-.59-.49-.5-.87.49-2.09,12.35-51.32,23.34-67.61,11.04-16.35,43.51-30.49,44.88-31.09.16-.07.33-.08.49-.03l23.99,6.85c.32.09.53.38.53.7,0,.11-.17,11.25-14.61,15.54-15.68,4.66-29.96,18.8-33.96,23.03-6.7,7.06-30.1,56.4-30.34,56.9-.13.26-.39.42-.66.42"/>
      <path class="cls-4" d="m395.3,173.73c-6.48-12.94-17.14-14.84-17.14-14.84l-18.29-1.53c-5.72-.39-11.8,3.15-14.05,8.41l-16.8,39.17s3.43,9.14,18.67,10.66c15.23,1.52,25.71.57,30.66,6.66,3.27,4.02,3.16-22.76,1.29-43.94l15.67-4.59"/>
      <path class="cls-1" d="m346.54,207.98l8.38-3.81,6.48,2.67s34.73-4.4,19.2-29.23c-.07-.1,12.2-2.59,12.2-2.59,0,0,14.16,33.72-30.65,34.48,0,0-2.29.77-5.33-.76-3.05-1.52-8.38,1.53-10.29-.76"/>
      <path d="m354.57,207.56c.92,0,1.8.13,2.58.53,2.74,1.37,4.76.73,4.78.72.07-.02.15-.04.22-.04,14.53-.24,24.27-3.99,28.94-11.14,5.52-8.44,2.18-19.23,1.26-21.78-3.58.73-8.59,1.76-10.61,2.21,3.81,6.45,4.6,12.14,2.33,16.91-4.86,10.23-21.85,12.49-22.58,12.59-.13.02-.25,0-.36-.05l-6.19-2.54-6.81,3.09c.9.18,2.13,0,3.41-.2,1.02-.15,2.05-.3,3.04-.3Zm6.06,2.85c-1.05,0-2.49-.21-4.14-1.02-1.21-.61-3.01-.34-4.75-.09-2.21.33-4.49.67-5.77-.86-.15-.18-.2-.41-.15-.63.05-.22.2-.41.41-.51l8.38-3.81c.19-.08.4-.08.58-.01l6.29,2.59c1.86-.28,17-2.78,21.26-11.74,2.14-4.5,1.21-10.01-2.77-16.35-.13-.2-.15-.46-.05-.68q.21-.48,12.73-3.01c.34-.07.69.11.82.43.23.54,5.52,13.45-1.17,23.69-4.94,7.56-15.05,11.53-30.04,11.8-.24.06-.82.19-1.64.19"/>
      <path class="cls-4" d="m378.93,180.01l17.02-4.8-.65-1.48s-1.94-1.48-2.31-1.48-9.98-.37-9.98-.37l-5.92,1.85,1.85,6.28"/>
      <path d="m314.45,210.48h33.04l-24.49-37.64c-.77-1.18-2.1-1.89-3.53-1.89h-26.82c-1.7,0-2.73,1.82-1.83,3.22l23.63,36.31"/>
      <path class="cls-1" d="m307.87,184.15c1.07,1.65,3.38,2.98,5.15,2.98s2.34-1.33,1.27-2.98c-1.07-1.65-3.39-2.98-5.16-2.98s-2.34,1.34-1.27,2.98"/>
      <path d="m309.13,181.89c-.51,0-.88.14-1.01.38-.17.32-.04.88.35,1.48.94,1.43,3.02,2.65,4.55,2.65.51,0,.88-.14,1.01-.39.17-.31.04-.88-.35-1.47-.94-1.44-3.02-2.65-4.55-2.65Zm3.89,5.97c-2.03,0-4.56-1.46-5.77-3.32-.7-1.07-.85-2.16-.41-2.96.4-.74,1.22-1.15,2.29-1.15,2.03,0,4.56,1.46,5.77,3.32.7,1.07.85,2.15.41,2.96-.4.74-1.22,1.15-2.29,1.15"/>
      <path d="m315.3,213.31h53.79c.53,0,.96-.43.96-.96v-2.11h-55.7v2.11c0,.53.43.96.95.96"/>
      <path d="m367.09,149.22c1.26,1.48,2.09,3.67,2.92,3.88,1.72.43,10.07-.19,15.66-5.35,5.48-5.05,6.85-14.01,4.21-16.11-1.9-1.52-5.38.89-8.23-1.45-1.27-1.04-.88-1.74-2.22-2.84-2.27-1.85-5.44-1.53-7.88-1.24-4.44.52-4.41,1.73-8.33,2.32-5.58.84-8.52-1.19-9.75.46-.98,1.31-.61,6.07.71,7.69,2.75,3.35,7.24-.97,9.31,2.08,1.29,1.89.85,4.28,2.59,8.82.14.36.42,1.05,1.01,1.76"/>
      <path class="cls-1" d="m362.43,153.03c.22-.55.45-1.15.68-1.78-1.28.39-2.57.35-3.3-.15-.89-.6-.96-1.64-1.22-2.89-.11-.52-.2-1.13-.68-1.69-.26-.3-.56-.52-.85-.67-.35-.18-.52-.61-.38-.99l.13-.22c.95-1.74,1.54-3.65,1.76-5.63l.42-3.89c2.21-.64,2.97-.42,3.23-.06.09.14.24.23.18.83-.31,2.89,2.32,2.84,4.55,2.52,2.23-.32,1.08,3.64,1.08,3.64,0,0,1.52-1.61,2.88.05.97,1.19-1.29,2.77-2.66,3.57l.05,8.45c.02,2.22,2.09,2.41,4.09,3.37l5.48,1.94s-15.31,5.1-23.91-.38l5.01-1.19c1.74-.73,2.9-3.4,3.47-4.84"/>
      <path d="m358.95,157.87h0,0Zm-2.96,1.45c6.34,2.83,15.37,1.08,19.46.04l-3.32-1.18s-.05-.02-.07-.03c-.42-.2-.85-.37-1.27-.54-1.51-.59-3.23-1.26-3.24-3.48l-.06-8.45c0-.27.14-.51.36-.64,1.75-1.03,2.45-1.85,2.53-2.25.02-.08.01-.14-.06-.22-.26-.31-.51-.47-.78-.48-.43-.01-.88.34-1.01.48-.23.24-.6.29-.89.13-.29-.17-.43-.51-.34-.83.28-.98.39-2.31.09-2.66-.03-.02-.09-.1-.35-.06-1.57.22-3.52.35-4.63-.71-.63-.6-.88-1.48-.76-2.61.02-.15.01-.22.01-.26l-.06-.08s-.09-.04-.39-.04-.78.05-1.57.25l-.36,3.4c-.22,2.08-.84,4.06-1.84,5.9l-.08.15s.02.05.04.06c.42.22.78.51,1.06.84.56.66.7,1.36.81,1.88l.03.14c.04.18.07.35.1.53.2,1.03.32,1.57.81,1.91.52.35,1.61.38,2.68.05.26-.08.55,0,.74.2.19.2.24.49.16.75-.21.58-.44,1.19-.68,1.8-.74,1.87-1.96,4.44-3.88,5.24-.03.02-.07.03-.11.04l-3.14.74Zm8.53,3.02c-3.83,0-7.8-.65-10.96-2.67-.25-.16-.38-.45-.33-.73.05-.29.27-.52.55-.59l4.94-1.18c1.54-.69,2.66-3.48,3.03-4.41.07-.18.15-.36.21-.54-1.02.09-1.94-.08-2.57-.51-1.02-.69-1.21-1.73-1.43-2.84-.04-.16-.07-.33-.1-.51l-.03-.15c-.09-.44-.17-.85-.49-1.23-.16-.19-.38-.35-.63-.48-.68-.36-.99-1.17-.72-1.9.02-.03.03-.06.04-.09l.13-.22c.91-1.67,1.47-3.47,1.67-5.35l.42-3.89c.03-.3.24-.54.53-.62,2.22-.65,3.46-.58,4.03.22.24.31.38.65.31,1.33-.07.67.03,1.13.32,1.41.73.7,2.73.41,3.4.32.88-.13,1.39.22,1.67.54.53.61.59,1.59.51,2.44.18-.04.38-.06.58-.06.48.02,1.2.21,1.86,1.02.33.41.46.9.38,1.41-.17.94-1.14,1.96-2.86,3.03l.05,8.03c.01,1.19.76,1.53,2.31,2.14.43.17.88.34,1.33.56l5.44,1.93c.29.1.48.38.48.69,0,.31-.21.58-.5.69-.41.14-6.75,2.21-13.57,2.21"/>
      <path d="m362.72,151.95c-.33,0-.63-.22-.71-.56-.09-.39.15-.79.54-.88,1.69-.41,2.91-2.6,3.23-3.41.16-.38.58-.56.95-.41.38.15.56.57.41.95-.06.15-1.48,3.63-4.24,4.29-.06.01-.11.02-.17.02"/>
      <path class="cls-2" d="m131.16,56.12c2.78-.07,5.04,2.31,5.04,5.32v37.56c0,3.02-2.26,5.52-5.04,5.6l-124.7,3.36c-2.79.08-5.04-2.31-5.04-5.32v-37.56c0-3.02,2.26-5.52,5.04-5.59l124.7-3.36"/>
      <path d="m6.33,108.7c-1.41,0-2.76-.56-3.8-1.57-1.17-1.14-1.84-2.78-1.84-4.49v-37.56c0-3.4,2.58-6.24,5.75-6.33l88.55-2.23c.4,0,.74.31.75.71.01.4-.31.73-.71.74l-88.55,2.24c-2.39.06-4.33,2.24-4.33,4.86v37.56c0,1.32.51,2.58,1.4,3.45.79.77,1.82,1.18,2.89,1.15l83.1-2.06c.39-.01.74.31.75.71.01.41-.31.74-.71.75l-83.1,2.06s-.09,0-.15,0"/>
      <path d="m101.73,106.14c-.4,0-.72-.31-.73-.71-.01-.4.31-.74.71-.75l29.43-.81c2.39-.06,4.33-2.24,4.33-4.86v-37.56c0-1.32-.51-2.58-1.4-3.45-.79-.77-1.83-1.18-2.89-1.15l-15.68.42h-.02c-.4,0-.72-.31-.73-.71-.01-.41.31-.74.71-.75l15.68-.42c1.47-.05,2.88.52,3.95,1.56,1.17,1.14,1.84,2.78,1.84,4.49v37.56c0,3.4-2.58,6.24-5.75,6.32l-29.43.81h-.02"/>
      <path class="cls-1" d="m122.91,72.74l-98.7,2.44c-1.42.04-2.57-1.08-2.57-2.49s1.16-2.58,2.57-2.61l98.7-2.45c1.42-.03,2.57,1.08,2.57,2.49s-1.15,2.58-2.57,2.62"/>
      <path class="cls-1" d="m16.62,72.81c0,1.41-1.15,2.58-2.57,2.61-1.42.04-2.57-1.08-2.57-2.49s1.15-2.58,2.57-2.62c1.42-.03,2.57,1.08,2.57,2.49"/>
      <path class="cls-1" d="m122.91,83.74l-98.7,2.44c-1.42.04-2.57-1.08-2.57-2.49s1.15-2.58,2.57-2.62l98.7-2.44c1.42-.04,2.57,1.08,2.57,2.49s-1.15,2.58-2.57,2.62"/>
      <path class="cls-1" d="m16.62,83.81c0,1.41-1.15,2.58-2.57,2.62-1.42.03-2.57-1.08-2.57-2.49s1.15-2.58,2.57-2.62c1.42-.04,2.57,1.08,2.57,2.49"/>
      <path class="cls-1" d="m122.92,94.74l-98.71,2.44c-1.42.04-2.57-1.08-2.57-2.49s1.15-2.58,2.57-2.62l98.71-2.44c1.42-.04,2.57,1.08,2.57,2.49s-1.15,2.58-2.57,2.62"/>
      <path class="cls-1" d="m16.62,94.82c0,1.41-1.15,2.58-2.57,2.61-1.42.04-2.57-1.08-2.57-2.49s1.15-2.58,2.57-2.61c1.42-.04,2.57,1.08,2.57,2.49"/>
    </g>
  </g>
</svg>